<?xml version="1.0" standalone="no"?>
<!DOCTYPE svg PUBLIC "-//W3C//DTD SVG 20010904//EN"
 "http://www.w3.org/TR/2001/REC-SVG-20010904/DTD/svg10.dtd">
<svg version="1.0" xmlns="http://www.w3.org/2000/svg"
 width="800.000000pt" height="800.000000pt" viewBox="0 0 800.000000 800.000000"
 preserveAspectRatio="xMidYMid meet">
<metadata>
Created by potrace 1.14, written by Peter Selinger 2001-2017
</metadata>
<g transform="translate(0.000000,800.000000) scale(0.100000,-0.100000)"
fill="#000000" stroke="none">
<path d="M3985 7980 c-16 -10 -34 -23 -40 -27 -21 -18 -116 -73 -125 -73 -6 0
-10 -3 -10 -8 0 -4 -17 -16 -37 -27 -21 -11 -51 -30 -66 -42 -16 -13 -33 -23
-37 -23 -9 0 -153 -89 -177 -110 -7 -6 -13 -7 -13 -3 0 4 -4 3 -8 -3 -4 -6
-22 -20 -41 -30 -18 -10 -41 -24 -50 -29 -9 -6 -37 -23 -63 -39 -27 -15 -48
-32 -48 -37 0 -5 -4 -8 -8 -6 -4 1 -77 -41 -162 -93 -198 -121 -451 -277 -470
-290 -59 -39 -112 -70 -120 -70 -6 0 -10 -4 -10 -9 0 -5 -8 -11 -17 -14 -10
-4 -49 -26 -88 -51 -38 -25 -98 -62 -132 -82 -35 -21 -63 -41 -63 -46 0 -5 -4
-7 -9 -3 -5 3 -16 -2 -24 -10 -9 -8 -18 -15 -21 -15 -3 0 -55 -31 -116 -70
-61 -38 -113 -70 -116 -70 -3 0 -10 -5 -17 -10 -21 -19 -238 -150 -248 -150
-5 0 -9 -4 -9 -8 0 -4 -25 -21 -55 -37 -30 -15 -55 -32 -55 -37 0 -4 -5 -8
-11 -8 -6 0 -29 -13 -52 -28 -23 -16 -49 -32 -57 -35 -8 -4 -42 -25 -75 -47
-33 -22 -70 -44 -83 -50 -12 -5 -28 -14 -35 -20 -23 -20 -237 -150 -247 -150
-6 0 -10 -4 -10 -10 0 -5 -6 -10 -14 -10 -8 0 -16 -3 -18 -8 -1 -4 -55 -38
-118 -76 -63 -39 -141 -87 -173 -108 -32 -21 -64 -38 -72 -38 -7 0 -15 -7 -19
-15 -3 -8 -12 -15 -21 -15 -8 0 -15 -4 -15 -10 0 -5 -6 -10 -14 -10 -8 0 -16
-3 -18 -7 -2 -5 -24 -19 -50 -33 -27 -13 -48 -28 -48 -32 0 -5 -4 -8 -10 -8
-5 0 -41 -20 -80 -45 -39 -25 -73 -45 -76 -45 -2 0 -10 -5 -17 -10 -20 -17
-137 -90 -145 -90 -4 -1 -17 -9 -29 -19 l-23 -19 1 -550 c0 -478 2 -550 14
-545 8 3 15 9 15 13 0 5 10 12 22 16 20 6 95 51 108 64 3 3 19 12 35 21 26 14
148 88 365 221 36 22 81 49 100 60 19 11 54 33 78 49 24 16 45 29 49 29 3 0
25 14 50 30 24 17 49 30 56 30 9 0 12 -78 14 -318 1 -174 4 -596 8 -937 3
-341 5 -640 5 -665 -2 -55 -2 -46 5 -695 3 -291 7 -747 9 -1013 2 -266 6 -485
8 -488 3 -2 523 500 523 506 0 0 90 88 200 196 l199 195 0 1909 0 1909 54 33
c29 18 80 50 112 71 33 20 64 37 70 37 5 0 10 4 10 8 0 5 15 16 32 25 28 14
127 74 178 107 8 5 53 33 100 62 47 28 87 55 90 58 3 4 19 13 35 22 39 20 396
243 413 258 6 6 12 8 12 5 0 -3 6 -1 13 5 6 6 46 31 87 57 106 65 151 93 182
115 15 10 30 18 33 18 4 0 25 13 48 29 23 16 114 73 202 126 88 54 168 105
178 113 9 8 17 11 17 6 0 -5 4 -4 8 1 8 11 119 85 127 85 6 0 86 51 95 60 3 3
15 10 27 17 19 11 44 -2 238 -122 119 -74 221 -135 226 -135 5 0 9 -4 9 -10 0
-5 11 -12 25 -16 14 -3 25 -9 25 -13 0 -3 17 -15 38 -26 20 -11 39 -23 42 -26
3 -3 16 -12 30 -19 13 -7 48 -28 77 -47 29 -18 56 -33 59 -32 4 0 10 -3 13 -9
3 -5 28 -22 54 -38 27 -16 65 -39 85 -52 21 -12 44 -25 52 -29 8 -4 21 -13 30
-20 8 -7 19 -13 24 -12 5 0 12 -3 15 -9 6 -9 118 -82 125 -82 3 0 32 -18 65
-40 33 -22 64 -40 69 -40 5 0 17 -9 27 -20 10 -11 20 -18 23 -15 3 3 12 -1 21
-8 14 -12 284 -181 343 -215 13 -7 42 -25 66 -40 23 -15 90 -56 148 -92 58
-36 118 -73 133 -82 14 -10 37 -23 51 -30 14 -7 27 -15 30 -18 11 -13 140 -90
150 -90 5 0 10 -3 10 -8 0 -4 9 -12 20 -17 45 -23 215 -129 218 -137 2 -4 7
-8 12 -8 11 0 114 -63 118 -72 2 -5 8 -8 14 -8 5 0 29 -13 53 -30 24 -16 46
-30 49 -30 2 0 31 -17 63 -38 32 -21 65 -42 73 -46 8 -3 47 -26 85 -51 39 -24
95 -59 125 -76 30 -18 57 -36 58 -41 2 -4 8 -8 12 -8 9 0 124 -70 147 -90 7
-5 14 -10 17 -10 5 0 71 -41 311 -190 177 -110 272 -167 288 -173 9 -4 17 -11
17 -17 0 -5 7 -10 15 -10 13 0 15 70 15 549 l0 549 -83 54 c-45 29 -90 56
-100 60 -10 4 -33 19 -51 33 -18 14 -36 25 -40 25 -4 0 -22 10 -39 23 -18 12
-41 27 -52 34 -11 7 -62 38 -113 70 -51 32 -100 63 -110 68 -37 22 -77 50 -83
58 -3 5 -10 9 -15 9 -10 1 -30 13 -114 67 -30 20 -58 35 -61 34 -4 -1 -15 7
-24 17 -10 11 -24 20 -32 20 -7 0 -13 5 -13 10 0 6 -5 10 -10 10 -6 0 -44 23
-86 50 -41 28 -78 50 -80 50 -3 0 -32 18 -64 40 -32 22 -64 40 -69 40 -6 0
-11 4 -11 9 0 5 -8 12 -17 15 -20 7 -35 16 -118 71 -33 22 -71 45 -85 52 -27
14 -62 35 -70 43 -3 3 -14 10 -25 17 -50 29 -225 139 -270 169 -28 19 -56 34
-63 34 -6 0 -12 4 -12 9 0 5 -15 16 -32 25 -18 9 -75 43 -127 76 -51 33 -97
60 -102 60 -5 0 -9 4 -9 9 0 5 -8 11 -17 15 -10 3 -56 30 -103 60 -47 30 -116
74 -155 98 -38 23 -73 47 -77 53 -5 6 -8 6 -8 0 0 -7 -3 -7 -8 0 -10 14 -90
65 -102 65 -5 0 -10 5 -10 10 0 6 -5 10 -11 10 -5 0 -37 18 -69 40 -32 22 -64
40 -69 40 -6 0 -11 5 -11 10 0 6 -7 10 -15 10 -8 0 -15 5 -15 10 0 6 -5 10
-10 10 -6 0 -34 15 -63 34 -28 18 -77 49 -107 68 -30 20 -58 35 -61 34 -4 0
-16 8 -28 18 -12 11 -30 24 -41 30 -26 14 -132 80 -197 122 -28 19 -56 34 -62
34 -6 0 -11 4 -11 9 0 5 -12 15 -27 22 -32 17 -128 76 -220 136 -35 23 -65 41
-67 40 -3 -1 -16 8 -30 20 -14 13 -26 20 -26 18 0 -3 -26 12 -57 33 -54 36
-118 73 -125 71 -2 0 -16 -9 -33 -19z"/>
<path d="M4577 5723 c-2 -1 -48 -5 -104 -8 -56 -3 -110 -7 -120 -9 -10 -2 -47
-7 -83 -10 -64 -7 -105 -13 -105 -16 0 -1 -18 -3 -40 -5 -22 -2 -51 -6 -65 -9
-14 -4 -38 -9 -55 -12 -16 -2 -41 -7 -55 -9 -52 -10 -70 -14 -79 -20 -5 -3
-22 -7 -38 -9 -15 -3 -39 -7 -53 -11 -14 -3 -32 -8 -40 -10 -8 -2 -15 -4 -15
-5 0 -1 -7 -3 -15 -5 -71 -17 -79 -20 -100 -28 -25 -9 -94 -31 -107 -33 -16
-3 -101 -33 -128 -45 -11 -5 -31 -11 -44 -14 -14 -2 -27 -8 -30 -12 -3 -5 -13
-9 -21 -11 -8 -1 -28 -8 -43 -14 l-28 -11 2 -96 c3 -111 6 -123 28 -117 9 3
27 7 41 10 14 2 48 10 75 16 28 6 64 14 80 17 17 2 39 6 50 8 58 12 92 17 113
18 12 1 22 4 22 7 0 3 15 5 33 5 17 -1 37 1 42 4 6 3 19 6 30 7 11 1 47 5 80
9 110 14 119 15 200 21 119 9 345 11 388 3 20 -3 37 -2 37 3 0 5 6 6 13 1 6
-4 23 -8 37 -9 30 -2 93 -12 135 -21 17 -4 35 -7 40 -8 6 -1 12 -3 15 -4 3 -2
14 -4 25 -6 18 -2 99 -28 135 -42 8 -4 18 -7 23 -8 4 -2 10 -4 15 -5 4 -1 10
-2 15 -1 4 0 7 -3 7 -9 0 -5 6 -10 13 -10 21 0 100 -85 113 -121 7 -19 13 -50
13 -70 1 -46 -24 -130 -46 -156 -10 -12 -60 -76 -112 -142 -51 -67 -99 -127
-105 -134 -123 -128 -141 -225 -60 -324 19 -23 48 -50 64 -60 17 -9 30 -20 30
-23 0 -4 -19 -27 -42 -53 -24 -25 -52 -57 -62 -69 -86 -102 -123 -145 -136
-158 -9 -8 -28 -31 -44 -50 -16 -19 -55 -64 -87 -100 -57 -64 -80 -91 -121
-140 -12 -14 -37 -43 -57 -65 -20 -22 -58 -67 -86 -99 -27 -32 -59 -68 -70
-80 -11 -12 -42 -48 -70 -80 -27 -32 -59 -68 -70 -80 -12 -12 -30 -34 -42 -49
-20 -26 -22 -26 -51 -12 -16 9 -35 22 -42 30 -7 8 -16 12 -21 9 -5 -3 -9 -1
-9 4 0 5 -12 14 -27 21 -26 12 -30 10 -126 -91 -101 -105 -391 -407 -507 -528
-120 -124 -465 -482 -515 -535 -27 -28 -134 -139 -237 -246 -103 -107 -219
-228 -259 -269 -39 -41 -158 -164 -263 -274 -105 -109 -220 -229 -256 -266
-36 -38 -151 -157 -256 -267 -105 -109 -240 -249 -299 -310 l-108 -113 -1
-121 c-1 -70 3 -124 9 -129 6 -5 172 -9 370 -10 198 -1 516 -2 707 -3 192 -1
348 -5 348 -9 0 -4 7 -5 15 -2 23 9 116 10 121 2 3 -5 10 -5 16 -2 14 9 129
11 134 3 2 -4 19 -3 38 1 19 4 39 4 45 1 11 -7 105 -6 118 2 5 2 17 1 28 -3
11 -4 30 -3 43 1 14 6 21 5 17 0 -3 -6 6 -6 24 -1 16 4 32 6 35 2 11 -10 276
-8 276 3 0 7 3 7 8 0 4 -7 130 -11 342 -12 184 -1 664 -4 1065 -8 898 -7 828
-7 840 -5 6 1 15 1 20 0 6 -1 131 -2 278 -1 151 1 266 -2 263 -7 -3 -5 1 -9 9
-9 8 0 12 5 8 10 -3 5 4 4 16 -2 15 -8 21 -9 21 -1 0 6 5 8 12 4 16 -10 58
-11 64 -2 3 5 14 3 25 -2 13 -8 19 -7 19 0 0 6 5 8 12 4 16 -10 58 -11 64 -2
3 5 14 3 25 -2 14 -8 19 -7 19 2 0 9 3 9 10 -2 7 -11 10 -11 10 -2 0 9 6 10
18 4 9 -4 170 -8 357 -7 l340 0 -2 850 c-1 468 -3 874 -5 902 -2 29 -1 53 2
53 3 0 4 30 2 67 -1 38 -2 91 -1 118 2 132 0 226 -6 235 -3 5 -2 10 3 10 6 0
7 14 2 35 -4 19 -4 37 1 40 4 3 6 12 3 19 -7 18 -10 116 -4 116 3 0 4 35 2 77
-1 43 -3 114 -2 158 0 44 0 89 -1 100 0 11 -1 66 -2 123 0 56 -3 102 -6 102
-3 0 -28 -25 -55 -55 l-49 -55 -75 3 c-72 3 -76 5 -126 49 -43 38 -115 101
-330 288 -75 66 -71 56 -72 170 -2 119 -9 191 -21 199 -5 3 -33 35 -63 71 -30
35 -68 79 -85 97 l-30 33 0 -884 c0 -486 -4 -882 -8 -879 -7 4 -3 -28 8 -64 2
-7 1 -15 -4 -17 -4 -3 -6 -22 -3 -43 2 -21 3 -42 3 -48 -1 -105 -1 -176 2
-202 2 -17 0 -30 -5 -27 -7 4 -5 -20 7 -78 2 -10 0 -18 -3 -18 -4 0 -6 -30 -4
-67 1 -38 2 -84 2 -103 -1 -19 -2 -106 -3 -192 l-2 -158 -140 0 c-77 0 -732
-2 -1455 -3 l-1315 -2 1 47 c1 35 7 54 27 75 14 15 48 57 77 93 28 36 56 72
63 80 7 8 56 71 110 140 54 69 108 136 120 150 12 14 41 50 64 80 23 30 50 64
60 75 10 11 41 49 68 85 51 67 73 94 90 114 6 6 44 54 85 106 41 52 77 97 80
100 3 3 58 71 123 152 64 81 137 168 162 192 28 28 45 54 45 69 0 29 -36 72
-68 82 -28 8 -53 45 -49 72 4 27 45 87 96 141 23 24 41 46 41 48 0 2 17 22 38
44 20 21 46 50 57 63 36 43 149 172 164 188 9 9 34 37 55 63 21 26 51 60 65
75 14 16 37 41 50 57 34 40 143 165 161 184 8 9 35 40 60 69 99 117 113 132
119 124 12 -17 77 -60 101 -68 63 -21 93 -14 138 32 23 24 42 48 42 54 0 5 4
9 10 9 6 0 18 8 28 18 27 26 95 84 132 112 18 14 42 33 53 43 11 9 24 17 28
17 4 0 14 6 21 13 17 15 80 48 99 50 8 2 19 5 24 8 35 19 222 14 265 -7 14 -7
98 -86 187 -176 l162 -163 7 -85 c3 -47 8 -101 9 -120 2 -19 4 -43 4 -52 1
-16 113 -130 216 -220 27 -23 60 -53 73 -66 23 -22 23 -22 50 -3 15 10 119
113 232 229 323 330 400 411 400 420 0 10 -267 281 -278 283 -4 1 -18 2 -32 3
-14 2 -41 6 -60 9 -19 4 -53 9 -75 12 -22 4 -51 8 -65 11 -14 2 -45 7 -70 10
-41 6 -55 16 -170 130 l-125 123 1 60 c1 33 -3 83 -8 113 -5 29 -10 62 -12 73
-2 11 -9 34 -15 50 -6 17 -17 44 -23 60 -19 48 -56 103 -97 143 -106 105 -180
170 -185 165 -3 -4 -6 -2 -6 4 0 13 -194 173 -209 173 -6 0 -11 4 -11 8 0 5
-33 31 -72 58 -40 27 -75 52 -78 55 -4 5 -75 48 -165 102 -33 19 -317 161
-325 162 -3 1 -21 6 -40 13 -19 6 -53 14 -75 17 -22 3 -58 8 -80 12 -22 3 -61
6 -87 7 -25 1 -45 3 -43 6 2 3 -15 7 -38 8 -23 1 -64 4 -92 7 -49 6 -414 12
-418 8z"/>
</g>
</svg>
