<svg xmlns="http://www.w3.org/2000/svg" width="32" height="32" viewBox="0 0 32 32"><path style="line-height:normal;font-variant-ligatures:normal;font-variant-position:normal;font-variant-caps:normal;font-variant-numeric:normal;font-variant-alternates:normal;font-variant-east-asian:normal;font-feature-settings:normal;font-variation-settings:normal;text-indent:0;text-align:start;text-decoration-line:none;text-decoration-style:solid;text-decoration-color:#000;text-transform:none;text-orientation:mixed;white-space:normal;shape-padding:0;shape-margin:0;inline-size:0;isolation:auto;mix-blend-mode:normal;solid-color:#000;solid-opacity:1" d="M 6,2 C 3.8012972,2 2,3.8012972 2,6 v 20 c 0,2.198703 1.8012972,4 4,4 h 10 a 1,1 0 0 0 1,-1 1,1 0 0 0 -1,-1 H 6 C 4.8747028,28 4,27.125297 4,26 V 6 C 4,4.8747028 4.8747028,4 6,4 h 14 c 1.125297,0 1.999999,0.874702 2,2 v 2 a 1,1 0 0 0 1,1 1,1 0 0 0 1,-1 V 6 c -1e-6,-2.198702 -1.801297,-4 -4,-4 z" color="#000" enable-background="accumulate" font-family="sans-serif" font-weight="400" overflow="visible"/><path style="line-height:normal;font-variant-ligatures:normal;font-variant-position:normal;font-variant-caps:normal;font-variant-numeric:normal;font-variant-alternates:normal;font-variant-east-asian:normal;font-feature-settings:normal;font-variation-settings:normal;text-indent:0;text-align:start;text-decoration-line:none;text-decoration-style:solid;text-decoration-color:#000;text-transform:none;text-orientation:mixed;white-space:normal;shape-padding:0;shape-margin:0;inline-size:0;isolation:auto;mix-blend-mode:normal;solid-color:#000;solid-opacity:1" d="m 63,90 c -3.854148,0 -7,3.145852 -7,7 0,2.372892 1.195691,4.47316 3.011719,5.74023 V 109 a 1.0001,1.0001 0 0 0 1.55664,0.83008 L 63,108.20312 l 2.431641,1.62696 A 1.0001,1.0001 0 0 0 66.988281,109 v -6.25977 C 68.804309,101.47316 70,99.372892 70,97 70,93.145852 66.854148,90 63,90 Z m 0,2 c 2.773268,0 5,2.226732 5,5 0,2.773268 -2.226732,5 -5,5 -2.773268,0 -5,-2.226732 -5,-5 0,-2.773268 2.226732,-5 5,-5 z m -1.988281,11.70703 C 61.642601,103.89488 62.309663,104 63,104 c 0.690337,0 1.357399,-0.10512 1.988281,-0.29297 v 3.42188 l -1.43164,-0.95899 a 1.0001,1.0001 0 0 0 -1.113282,0 l -1.43164,0.95899 z" color="#000" enable-background="accumulate" font-family="sans-serif" font-weight="400" overflow="visible" transform="translate(-40 -80)"/><path style="line-height:normal;font-variant-ligatures:normal;font-variant-position:normal;font-variant-caps:normal;font-variant-numeric:normal;font-variant-alternates:normal;font-variant-east-asian:normal;font-feature-settings:normal;font-variation-settings:normal;text-indent:0;text-align:start;text-decoration-line:none;text-decoration-style:solid;text-decoration-color:#000;text-transform:none;text-orientation:mixed;white-space:normal;shape-padding:0;shape-margin:0;inline-size:0;isolation:auto;mix-blend-mode:normal;solid-color:#000;solid-opacity:1" d="M8 7A1 1 0 007 8 1 1 0 008 9h3A1 1 0 0012 8 1 1 0 0011 7zM8 11a1 1 0 00-1 1 1 1 0 001 1h6a1 1 0 001-1 1 1 0 00-1-1zM8 15a1 1 0 00-1 1 1 1 0 001 1h3a1 1 0 001-1 1 1 0 00-1-1z" color="#000" enable-background="accumulate" font-family="sans-serif" font-weight="400" overflow="visible"/></svg>